# xmcd
#
# Track frame offsets:
#	150
#	13035
#	28524
#	38406
#	51858
#	63677
#	77316
#	88847
#	108830
#	122928
#	135886
#	146978
#	162110
#	172254
#	187573
#	196148
#
# Disc length: 2778 seconds
#
# Revision: 1
# Processed by: cddbd v1.5.2PL0 Copyright (c) Steve Scherf et al.
# Submitted via: EasyCDDAExtractor 11.9.9.666
#
DISCID=ca0ad810
DTITLE=Max Wolff - Got You on my mind
DYEAR=2008
DGENRE=Blues
TTITLE0=Ready Little Rag
TTITLE1=Hillbilly Rambling
TTITLE2=Your Doggone Daddy
TTITLE3=Malted Milk Blues
TTITLE4=Chicken Food Stomp
TTITLE5=Hometown Blues
TTITLE6=I Wont To Boogi
TTITLE7=It Hurts Me too
TTITLE8=Police Dog Blues
TTITLE9=The White Man's Blues
TTITLE10=Remembering Chet
TTITLE11=Low Down Honky Tonk
TTITLE12=Just As Well To Let Her Go
TTITLE13=Sporting Life Blues
TTITLE14=B-Flat Boogie
TTITLE15=Honky Tonk Blues
EXTD=
EXTT0=
EXTT1=
EXTT2=
EXTT3=
EXTT4=
EXTT5=
EXTT6=
EXTT7=
EXTT8=
EXTT9=
EXTT10=
EXTT11=
EXTT12=
EXTT13=
EXTT14=
EXTT15=
PLAYORDER=
